<svg width="23.000000" height="23.000000" viewBox="0 0 23 23" fill="none" xmlns="http://www.w3.org/2000/svg" xmlns:xlink="http://www.w3.org/1999/xlink">
	<defs/>
	<path id="Vector" d="M21.08 9.58L6.52 9.58L12.85 3.28C13.21 2.92 13.41 2.43 13.41 1.92C13.41 1.41 13.21 0.92 12.85 0.56C12.49 0.2 12 0 11.49 0C10.98 0 10.49 0.2 10.13 0.56L0.54 10.13C0.37 10.32 0.23 10.53 0.14 10.77C-0.05 11.23 -0.05 11.75 0.14 12.22C0.23 12.46 0.37 12.67 0.54 12.85L10.13 22.43C10.31 22.61 10.52 22.75 10.75 22.85C10.99 22.95 11.24 23 11.49 23C11.74 23 11.99 22.95 12.23 22.85C12.46 22.75 12.67 22.61 12.85 22.43C13.03 22.25 13.17 22.04 13.27 21.81C13.37 21.57 13.42 21.32 13.42 21.07C13.42 20.82 13.37 20.57 13.27 20.33C13.17 20.1 13.03 19.89 12.85 19.71L6.52 13.41L21.08 13.41C21.59 13.41 22.07 13.21 22.43 12.85C22.79 12.49 23 12 23 11.49C23 10.99 22.79 10.5 22.43 10.14C22.07 9.78 21.59 9.58 21.08 9.58Z" fill="#0D64C9" fill-opacity="1.000000" fill-rule="nonzero"/>
</svg>
