<svg width="30.453125" height="34.801758" viewBox="0 0 30.4531 34.8018" fill="none" xmlns="http://www.w3.org/2000/svg" xmlns:xlink="http://www.w3.org/1999/xlink">
	<path id="Vector" d="M27.07 18.41L16.11 29.38C14.67 30.65 12.81 31.33 10.88 31.28C8.96 31.22 7.14 30.43 5.78 29.08C4.42 27.72 3.63 25.89 3.58 23.97C3.52 22.05 4.2 20.19 5.48 18.75L19.66 4.58C20.5 3.78 21.63 3.33 22.79 3.33C23.96 3.33 25.08 3.78 25.93 4.58C26.76 5.41 27.22 6.54 27.22 7.71C27.22 8.89 26.76 10.01 25.93 10.85L13.7 23.06C13.58 23.19 13.43 23.29 13.27 23.36C13.11 23.44 12.93 23.48 12.76 23.49C12.58 23.49 12.4 23.46 12.24 23.4C12.07 23.34 11.92 23.25 11.79 23.13C11.66 23.01 11.55 22.86 11.48 22.7C11.4 22.54 11.36 22.36 11.35 22.18C11.35 22.01 11.38 21.83 11.44 21.66C11.5 21.5 11.59 21.34 11.71 21.21L20.81 12.14C21.14 11.81 21.33 11.36 21.33 10.89C21.33 10.41 21.14 9.96 20.81 9.63C20.48 9.29 20.02 9.11 19.55 9.11C19.08 9.11 18.63 9.29 18.29 9.63L9.2 18.73C8.74 19.18 8.38 19.72 8.14 20.31C7.89 20.9 7.76 21.54 7.76 22.18C7.76 22.82 7.89 23.45 8.14 24.04C8.38 24.64 8.74 25.17 9.2 25.62C10.13 26.51 11.36 27 12.65 27C13.93 27 15.16 26.51 16.09 25.62L28.31 13.4C29.72 11.89 30.48 9.89 30.45 7.83C30.41 5.76 29.57 3.79 28.11 2.33C26.65 0.87 24.68 0.03 22.61 0C20.55 -0.04 18.55 0.73 17.03 2.13L2.85 16.31C0.94 18.42 -0.08 21.19 0 24.05C0.08 26.9 1.26 29.6 3.29 31.61C5.33 33.61 8.05 34.75 10.91 34.8C13.76 34.84 16.52 33.78 18.61 31.84L29.58 20.89C29.75 20.73 29.88 20.53 29.97 20.32C30.06 20.1 30.1 19.87 30.1 19.64C30.1 19.4 30.06 19.17 29.97 18.96C29.88 18.74 29.75 18.54 29.58 18.38C29.42 18.21 29.22 18.08 29.01 17.99C28.79 17.9 28.56 17.86 28.33 17.86C28.09 17.86 27.86 17.9 27.64 17.99C27.43 18.08 27.23 18.21 27.07 18.38L27.07 18.41Z" fill="#16154F" fill-opacity="1.000000" fill-rule="evenodd"/>
</svg>
