<svg width="19.000000" height="19.000000" viewBox="0 0 19 19" fill="none" xmlns="http://www.w3.org/2000/svg" xmlns:xlink="http://www.w3.org/1999/xlink">
	<path id="Vector" d="M9.5 4.75C9.24 4.75 9 4.85 8.82 5.02C8.65 5.2 8.55 5.44 8.55 5.7L8.55 9.5C8.55 9.75 8.65 9.99 8.82 10.17C9 10.35 9.24 10.45 9.5 10.45C9.75 10.45 9.99 10.35 10.17 10.17C10.34 9.99 10.44 9.75 10.44 9.5L10.44 5.7C10.44 5.44 10.34 5.2 10.17 5.02C9.99 4.85 9.75 4.75 9.5 4.75ZM10.37 12.93C10.35 12.87 10.32 12.82 10.28 12.76L10.17 12.62C10.04 12.49 9.87 12.4 9.68 12.36C9.5 12.33 9.31 12.35 9.13 12.42C9.02 12.47 8.91 12.54 8.82 12.62C8.73 12.71 8.66 12.81 8.62 12.93C8.57 13.05 8.54 13.17 8.55 13.29C8.55 13.42 8.57 13.54 8.62 13.66C8.66 13.77 8.73 13.88 8.82 13.97C8.91 14.06 9.02 14.13 9.13 14.17C9.25 14.22 9.37 14.25 9.5 14.25C9.62 14.25 9.74 14.22 9.86 14.17C9.97 14.13 10.08 14.06 10.17 13.97C10.26 13.88 10.33 13.77 10.37 13.66C10.42 13.54 10.44 13.42 10.44 13.29C10.45 13.23 10.45 13.17 10.44 13.1C10.43 13.04 10.4 12.99 10.37 12.93ZM9.5 0C7.62 0 5.78 0.55 4.22 1.6C2.66 2.64 1.44 4.12 0.72 5.86C0 7.6 -0.19 9.51 0.18 11.35C0.54 13.19 1.45 14.88 2.78 16.21C4.11 17.54 5.8 18.45 7.64 18.81C9.49 19.18 11.4 18.99 13.13 18.27C14.87 17.55 16.35 16.34 17.39 14.77C18.44 13.21 19 11.37 19 9.5C19 8.25 18.75 7.01 18.27 5.86C17.79 4.71 17.09 3.66 16.21 2.78C15.33 1.9 14.28 1.2 13.13 0.72C11.98 0.24 10.74 0 9.5 0ZM9.5 17.1C7.99 17.1 6.52 16.65 5.27 15.81C4.02 14.98 3.05 13.79 2.47 12.4C1.9 11.01 1.75 9.49 2.04 8.01C2.33 6.54 3.06 5.18 4.12 4.12C5.18 3.06 6.54 2.33 8.01 2.04C9.49 1.75 11.01 1.9 12.4 2.47C13.79 3.05 14.98 4.02 15.81 5.27C16.65 6.52 17.09 7.99 17.09 9.5C17.09 11.51 16.29 13.44 14.87 14.87C13.44 16.29 11.51 17.1 9.5 17.1Z" fill="#FFFFFF" fill-opacity="1.000000" fill-rule="evenodd"/>
</svg>
