<svg width="6.000000" height="22.000000" viewBox="0 0 6 22" fill="none" xmlns="http://www.w3.org/2000/svg" xmlns:xlink="http://www.w3.org/1999/xlink">
	<path id="Vector" d="M5.25 2.36C5.25 2.98 5.01 3.58 4.59 4.02C4.17 4.46 3.59 4.72 3 4.72C2.4 4.72 1.83 4.47 1.4 4.02C0.98 3.58 0.74 2.98 0.74 2.36C0.74 1.73 0.98 1.13 1.4 0.69C1.82 0.25 2.4 0 3 0C3.59 0 4.16 0.24 4.59 0.69C5.01 1.13 5.25 1.73 5.25 2.36ZM6 20.43L6 11C6 10.17 5.68 9.37 5.11 8.78C4.55 8.19 3.78 7.85 3 7.85L1.5 7.85C1.1 7.85 0.71 8.02 0.44 8.31C0.15 8.61 0 9.01 0 9.42C0 9.84 0.15 10.24 0.44 10.53C0.72 10.83 1.1 11 1.5 11L3 11L3 20.42C3 20.84 3.15 21.24 3.44 21.53C3.72 21.83 4.1 22 4.5 22C4.89 22 5.28 21.83 5.55 21.53C5.84 21.24 6 20.84 6 20.42L6 20.43Z" fill="#0D64C9" fill-opacity="1.000000" fill-rule="evenodd"/>
</svg>
