<svg width="22.000000" height="22.000000" viewBox="0 0 22 22" fill="none" xmlns="http://www.w3.org/2000/svg" xmlns:xlink="http://www.w3.org/1999/xlink">
	<path id="cabinet_ico_deactive" d="M8.37 0.59C1.04 3.66 3.18 14.49 11.12 14.49C14.41 14.49 16.88 12.69 18.03 9.46C20.13 3.57 14.22 -1.85 8.37 0.59ZM14.67 3.55C16.65 5.38 16.69 8.89 14.76 10.92C11.72 14.12 5.82 11.72 5.82 7.28C5.82 2.91 11.44 0.54 14.67 3.55ZM6.79 16.19C2.6 17.2 0 19.2 0 21.41C0 22.36 1.76 22.08 2.16 21.07C2.85 19.29 6.39 18.09 10.99 18.08C15.75 18.07 20.05 19.5 20.05 21.11C20.05 21.6 20.49 22 21.02 22C21.56 22 22 21.44 22 20.76C22 17.31 13.16 14.66 6.79 16.19Z" fill="#000000" fill-opacity="1.000000" fill-rule="evenodd"/>
</svg>
