<svg width="24.166016" height="22.958252" viewBox="0 0 24.166 22.9583" fill="none" xmlns="http://www.w3.org/2000/svg" xmlns:xlink="http://www.w3.org/1999/xlink">
	<path id="Vector" d="M20.54 4.83L16.91 4.83L16.91 3.62C16.91 2.66 16.53 1.74 15.85 1.06C15.17 0.38 14.25 0 13.29 0L10.87 0C9.91 0 8.99 0.38 8.31 1.06C7.63 1.74 7.25 2.66 7.25 3.62L7.25 4.83L3.62 4.83C2.66 4.83 1.74 5.21 1.06 5.89C0.38 6.57 0 7.49 0 8.45L0 19.33C0 20.29 0.38 21.21 1.06 21.89C1.74 22.57 2.66 22.95 3.62 22.95L20.54 22.95C21.5 22.95 22.42 22.57 23.1 21.89C23.78 21.21 24.16 20.29 24.16 19.33L24.16 8.45C24.16 7.49 23.78 6.57 23.1 5.89C22.42 5.21 21.5 4.83 20.54 4.83ZM9.66 3.62C9.66 3.3 9.79 2.99 10.02 2.77C10.24 2.54 10.55 2.41 10.87 2.41L13.29 2.41C13.61 2.41 13.91 2.54 14.14 2.77C14.37 2.99 14.5 3.3 14.5 3.62L14.5 4.83L9.66 4.83L9.66 3.62ZM21.75 19.33C21.75 19.65 21.62 19.96 21.39 20.18C21.16 20.41 20.86 20.54 20.54 20.54L3.62 20.54C3.3 20.54 2.99 20.41 2.77 20.18C2.54 19.96 2.41 19.65 2.41 19.33L2.41 12.68C3.59 13.15 4.8 13.53 6.04 13.82L6.04 14.53C6.04 14.85 6.16 15.16 6.39 15.39C6.62 15.61 6.92 15.74 7.25 15.74C7.57 15.74 7.87 15.61 8.1 15.39C8.33 15.16 8.45 14.85 8.45 14.53L8.45 14.28C9.66 14.44 10.87 14.53 12.08 14.53C13.29 14.53 14.5 14.44 15.7 14.28L15.7 14.53C15.7 14.85 15.83 15.16 16.06 15.39C16.28 15.61 16.59 15.74 16.91 15.74C17.23 15.74 17.54 15.61 17.77 15.39C17.99 15.16 18.12 14.85 18.12 14.53L18.12 13.82C19.35 13.53 20.57 13.15 21.75 12.68L21.75 19.33ZM21.75 10.04C20.57 10.53 19.36 10.94 18.12 11.24L18.12 10.87C18.12 10.55 17.99 10.24 17.77 10.02C17.54 9.79 17.23 9.66 16.91 9.66C16.59 9.66 16.28 9.79 16.06 10.02C15.83 10.24 15.7 10.55 15.7 10.87L15.7 11.76C13.3 12.13 10.86 12.13 8.45 11.76L8.45 10.87C8.45 10.55 8.33 10.24 8.1 10.02C7.87 9.79 7.57 9.66 7.25 9.66C6.92 9.66 6.62 9.79 6.39 10.02C6.16 10.24 6.04 10.55 6.04 10.87L6.04 11.27C4.8 10.96 3.59 10.56 2.41 10.06L2.41 8.45C2.41 8.13 2.54 7.83 2.77 7.6C2.99 7.37 3.3 7.25 3.62 7.25L20.54 7.25C20.86 7.25 21.16 7.37 21.39 7.6C21.62 7.83 21.75 8.13 21.75 8.45L21.75 10.04Z" fill="#0D64C9" fill-opacity="1.000000" fill-rule="nonzero"/>
</svg>
