<svg width="20.333984" height="21.750000" viewBox="0 0 20.334 21.75" fill="none" xmlns="http://www.w3.org/2000/svg" xmlns:xlink="http://www.w3.org/1999/xlink">
	<path id="Vector" d="M9.66 0C9.97 0 10.27 0.11 10.49 0.32C10.71 0.54 10.85 0.83 10.87 1.13C10.88 1.44 10.78 1.74 10.59 1.98C10.39 2.21 10.11 2.37 9.8 2.4L9.66 2.41L3.62 2.41C3.32 2.41 3.04 2.52 2.82 2.72C2.6 2.91 2.45 3.18 2.42 3.48L2.41 3.62L2.41 18.12C2.41 18.42 2.52 18.7 2.72 18.92C2.91 19.14 3.18 19.29 3.48 19.32L3.62 19.33L9.06 19.33C9.37 19.33 9.66 19.45 9.89 19.66C10.11 19.87 10.25 20.16 10.26 20.47C10.28 20.77 10.18 21.08 9.98 21.31C9.79 21.55 9.5 21.7 9.2 21.74L9.06 21.75L3.62 21.75C2.7 21.75 1.81 21.39 1.13 20.76C0.46 20.12 0.06 19.26 0 18.33L0 18.12L0 3.62C0 2.7 0.35 1.81 0.98 1.13C1.62 0.46 2.49 0.06 3.41 0L3.62 0L9.66 0ZM16.56 6.6L19.98 10.02C20.2 10.24 20.33 10.55 20.33 10.87C20.33 11.19 20.2 11.5 19.98 11.72L16.56 15.14C16.33 15.37 16.02 15.5 15.7 15.5C15.38 15.5 15.08 15.37 14.85 15.14C14.62 14.92 14.5 14.61 14.5 14.29C14.5 13.97 14.62 13.66 14.85 13.43L16.2 12.08L9.66 12.08C9.34 12.08 9.03 11.95 8.81 11.72C8.58 11.5 8.45 11.19 8.45 10.87C8.45 10.55 8.58 10.24 8.81 10.02C9.03 9.79 9.34 9.66 9.66 9.66L16.2 9.66L14.85 8.31C14.62 8.08 14.5 7.77 14.5 7.45C14.5 7.13 14.62 6.82 14.85 6.6C15.08 6.37 15.38 6.24 15.7 6.24C16.02 6.24 16.33 6.37 16.56 6.6Z" fill="#000000" fill-opacity="1.000000" fill-rule="evenodd"/>
</svg>
